<svg width="74" height="86" viewBox="0 0 74 86" fill="none" xmlns="http://www.w3.org/2000/svg">
<path d="M64.75 36.9531H58.3906V29.5625C58.3906 27.7081 57.0956 26.2031 55.5 26.2031C53.9044 26.2031 52.6094 27.7081 52.6094 29.5625V36.9531H39.8906V29.5625C39.8906 27.7081 38.5956 26.2031 37 26.2031C35.4044 26.2031 34.1094 27.7081 34.1094 29.5625V36.9531H21.3906V29.5625C21.3906 27.7081 20.0956 26.2031 18.5 26.2031C16.9044 26.2031 15.6094 27.7081 15.6094 29.5625V36.9531H9.25C5.10137 36.9585 1.739 40.8661 1.73438 45.6875V75.25C1.739 80.0714 5.10137 83.979 9.25 83.9844H64.75C68.8986 83.9817 72.2633 80.0714 72.2656 75.25V45.6875C72.261 40.8661 68.8986 36.9585 64.75 36.9531ZM9.25 43.6719H15.6094V48.375C15.6094 50.2294 16.9044 51.7344 18.5 51.7344C20.0956 51.7344 21.3906 50.2294 21.3906 48.375V43.6719H34.1094V48.375C34.1094 50.2294 35.4044 51.7344 37 51.7344C38.5956 51.7344 39.8906 50.2294 39.8906 48.375V43.6719H52.6094V48.375C52.6094 50.2294 53.9044 51.7344 55.5 51.7344C57.0956 51.7344 58.3906 50.2294 58.3906 48.375V43.6719H64.75C65.7028 43.688 66.4705 44.5802 66.4844 45.6848V61.7534L62.1716 56.7412C61.6374 56.1365 60.9066 55.7629 60.0996 55.7629C60.0071 55.7629 59.9146 55.7683 59.8244 55.7764H59.8359C58.9456 55.8812 58.1848 56.4429 57.72 57.2545L57.7131 57.2679C55.2017 61.6781 51.3537 66.9429 47.6236 66.5076C43.734 66.1501 40.5404 60.0576 39.6362 57.7409C39.1691 56.5665 38.1655 55.7683 37 55.7683C35.8345 55.7683 34.8309 56.5692 34.373 57.7221L34.3661 57.7436C33.4734 60.028 30.3099 66.0319 26.4319 66.4054C22.6949 66.8677 18.8099 61.6351 16.2731 57.2518C15.799 56.4375 15.0405 55.8839 14.1664 55.7844H14.1548C14.0739 55.7764 13.9791 55.771 13.8843 55.771C13.0841 55.771 12.358 56.1446 11.8308 56.7519L7.51562 61.7668V45.6956C7.5295 44.5883 8.29725 43.6961 9.25 43.6799V43.6719ZM64.75 77.2656H9.25C8.29725 77.2495 7.5295 76.3572 7.51562 75.2527V71.2644L13.5328 64.2716C16.3794 69.5176 21.2981 72.9791 26.9198 73.1H26.936C31.1609 72.3072 34.7268 69.531 36.9607 65.6368L36.9954 65.575C39.2709 69.5901 42.8691 72.4066 47.0524 73.1941L47.138 73.2075C47.4317 73.2344 47.7207 73.2505 48.0098 73.2505C53.2846 72.6458 57.7824 69.2542 60.4487 64.3737L60.4881 64.2957L66.4867 71.2725V75.2581C66.4728 76.3653 65.7051 77.2576 64.7546 77.2737H64.7523L64.75 77.2656ZM18.4792 24.8594C23.0394 24.7734 26.7579 20.6857 27.1488 15.4907L27.1511 15.4531C26.0318 10.5162 23.7447 6.31831 20.6529 3.15513L20.6298 3.13094C20.1002 2.44562 19.3325 2.01562 18.4815 2.01562H18.4769C17.6236 2.01831 16.8558 2.451 16.3263 3.13631L16.3239 3.139C13.3177 6.40431 11.0676 10.5673 9.89056 15.2623L9.84894 15.4531C10.2305 20.6749 13.9328 24.7599 18.4722 24.8594H18.4792ZM18.4884 10.5968C19.5637 12.0507 20.5188 13.6901 21.3004 15.4478L21.3582 15.5902C20.9142 17.0038 19.8112 18.0197 18.4931 18.1406H18.4815C17.1888 18.0036 16.1112 17.0549 15.6209 15.7434L15.6117 15.7165C16.4187 13.76 17.3808 12.0776 18.5116 10.5699L18.4884 10.5968ZM36.9792 24.8594C41.5394 24.7734 45.2556 20.6857 45.6464 15.4907L45.6488 15.4531C44.5295 10.5162 42.2424 6.31831 39.1529 3.15513L39.1298 3.13094C38.6003 2.44562 37.8348 2.01562 36.9815 2.01562H36.9746C36.1213 2.01831 35.3535 2.451 34.8239 3.13631L34.8216 3.139C31.8154 6.40431 29.5653 10.5673 28.3883 15.2623L28.3466 15.4531C28.7282 20.6749 32.4305 24.7599 36.9699 24.8594H36.9792ZM36.9861 10.5995C38.0638 12.0534 39.0188 13.6901 39.7981 15.4478L39.8536 15.5875C39.4096 17.0011 38.3089 18.017 36.9907 18.1379H36.9792C35.6865 18.0009 34.6089 17.0522 34.1186 15.7407L34.1094 15.7138C34.9164 13.76 35.8761 12.0749 37.0069 10.5699L36.9861 10.5995ZM55.4769 24.8594C60.0371 24.7734 63.7533 20.6857 64.1464 15.4907L64.1488 15.4531C63.0295 10.5162 60.7424 6.31831 57.6506 3.15513L57.6275 3.13094C57.0979 2.44562 56.3325 2.01562 55.4815 2.01562C55.4792 2.01562 55.4792 2.01562 55.4769 2.01562H55.4723C54.6166 2.01831 53.8489 2.451 53.3193 3.13631L53.317 3.139C50.3131 6.40431 48.0653 10.5699 46.8906 15.2623L46.8489 15.4531C47.2282 20.6749 50.9282 24.7599 55.4676 24.8594H55.4769ZM55.4861 10.5995C56.5637 12.0534 57.5165 13.6901 58.2981 15.4478L58.3559 15.5875C57.9119 17.0011 56.8089 18.017 55.4907 18.1379H55.4792C54.1888 18.0009 53.1135 17.0522 52.6233 15.7407L52.614 15.7138C53.4141 13.7573 54.3738 12.0749 55.5046 10.5699L55.4861 10.5995Z" fill="#D62E57"/>
</svg>
