<svg width="98" height="98" viewBox="0 0 98 98" fill="none" xmlns="http://www.w3.org/2000/svg">
<path d="M81.6666 69.4167C82.4165 69.416 83.1517 69.2089 83.7916 68.818C84.4315 68.4271 84.9514 67.8675 85.2943 67.2007C85.6372 66.5338 85.7899 65.7855 85.7356 65.0376C85.6812 64.2897 85.4221 63.5712 84.9864 62.9609L69.1839 40.8333H73.5C74.281 40.8333 75.0456 40.6092 75.7031 40.1878C76.3606 39.7664 76.8835 39.1652 77.2097 38.4556C77.5359 37.746 77.6518 36.9577 77.5436 36.1843C77.4354 35.4108 77.1077 34.6846 76.5992 34.0918L52.0992 5.50842C51.7043 5.0806 51.225 4.73919 50.6916 4.50567C50.1582 4.27216 49.5822 4.15161 49 4.15161C48.4177 4.15161 47.8417 4.27216 47.3084 4.50567C46.775 4.73919 46.2957 5.0806 45.9007 5.50842L21.4007 34.0918C20.8923 34.6846 20.5645 35.4108 20.4563 36.1843C20.3481 36.9577 20.464 37.746 20.7902 38.4556C21.1164 39.1652 21.6393 39.7664 22.2969 40.1878C22.9544 40.6092 23.719 40.8333 24.5 40.8333H28.8161L13.0136 62.9609C12.5779 63.5712 12.3187 64.2897 12.2644 65.0376C12.2101 65.7855 12.3627 66.5338 12.7057 67.2007C13.0486 67.8675 13.5685 68.4271 14.2084 68.818C14.8483 69.2089 15.5835 69.416 16.3333 69.4167H44.9166V85.75H32.6666C31.5837 85.75 30.5451 86.1802 29.7793 86.946C29.0135 87.7118 28.5833 88.7504 28.5833 89.8333C28.5833 90.9163 29.0135 91.9549 29.7793 92.7207C30.5451 93.4865 31.5837 93.9167 32.6666 93.9167H65.3333C66.4163 93.9167 67.4549 93.4865 68.2207 92.7207C68.9864 91.9549 69.4166 90.9163 69.4166 89.8333C69.4166 88.7504 68.9864 87.7118 68.2207 86.946C67.4549 86.1802 66.4163 85.75 65.3333 85.75H53.0833V69.4167H81.6666ZM40.0697 39.1224C40.5054 38.5121 40.7646 37.7936 40.8189 37.0458C40.8732 36.2979 40.7205 35.5495 40.3776 34.8827C40.0347 34.2158 39.5148 33.6563 38.8749 33.2654C38.235 32.8745 37.4998 32.6674 36.75 32.6667H33.3771L49 14.4428L64.6228 32.6667H61.25C60.5001 32.6674 59.7649 32.8745 59.125 33.2654C58.4851 33.6563 57.9652 34.2158 57.6223 34.8827C57.2794 35.5495 57.1267 36.2979 57.181 37.0458C57.2354 37.7936 57.4946 38.5121 57.9302 39.1224L73.7327 61.25H24.2672L40.0697 39.1224Z" fill="#D62E57"/>
</svg>
