<svg width="97" height="97" viewBox="0 0 97 97" fill="none" xmlns="http://www.w3.org/2000/svg">
<path d="M30.3126 27.2812V25.1654C30.3126 14.6531 38.4121 6.0625 48.5001 6.0625C58.5881 6.0625 66.6876 14.6531 66.6876 25.1654V27.2873H79.1036C79.8546 27.2881 80.5785 27.5675 81.1352 28.0715C81.6918 28.5756 82.0416 29.2683 82.1167 30.0154L87.5729 84.5779C87.6153 84.9992 87.5689 85.4247 87.4368 85.8269C87.3047 86.2291 87.0898 86.5993 86.8059 86.9134C86.5221 87.2275 86.1756 87.4787 85.7887 87.6507C85.4019 87.8228 84.9833 87.9119 84.5599 87.9123H12.4404C12.017 87.9119 11.5984 87.8228 11.2115 87.6507C10.8247 87.4787 10.4782 87.2275 10.1943 86.9134C9.91046 86.5993 9.69556 86.2291 9.56345 85.8269C9.43134 85.4247 9.38497 84.9992 9.4273 84.5779L14.8836 30.0154C14.9586 29.2683 15.3084 28.5756 15.8651 28.0715C16.4217 27.5675 17.1457 27.2881 17.8966 27.2873H30.3126V27.2812ZM36.3751 27.2812H60.6251V25.1654C60.6251 17.9268 55.1567 12.125 48.5001 12.125C41.8435 12.125 36.3751 17.9268 36.3751 25.1654V27.2873V27.2812ZM30.3126 33.3438H20.6429L15.7929 81.8438H81.2073L76.3512 33.3438H66.6876V42.4375C66.6876 43.2414 66.3683 44.0124 65.7998 44.5809C65.2313 45.1494 64.4603 45.4688 63.6564 45.4688C62.8524 45.4688 62.0814 45.1494 61.513 44.5809C60.9445 44.0124 60.6251 43.2414 60.6251 42.4375V33.3438H36.3751V42.4375C36.3751 43.2414 36.0558 44.0124 35.4873 44.5809C34.9188 45.1494 34.1478 45.4688 33.3439 45.4688C32.5399 45.4688 31.7689 45.1494 31.2005 44.5809C30.632 44.0124 30.3126 43.2414 30.3126 42.4375V33.3438Z" fill="#D62E57"/>
</svg>
