<svg width="86" height="86" viewBox="0 0 86 86" fill="none" xmlns="http://www.w3.org/2000/svg">
<path d="M61.25 4.63314L21.1167 44.7665C20.7217 45.159 20.4246 45.6389 20.2495 46.1675L14.5162 63.3675C14.3367 63.9062 14.2879 64.4799 14.3737 65.0411C14.4594 65.6024 14.6773 66.1353 15.0094 66.5958C15.3415 67.0563 15.7783 67.4314 16.2838 67.69C16.7893 67.9486 17.349 68.0834 17.9167 68.0832C18.3015 68.0826 18.6837 68.021 19.0491 67.9005L36.2491 62.1671C36.7768 61.9901 37.2563 61.6933 37.6502 61.3L77.7835 21.1666C78.4553 20.4947 78.8326 19.5834 78.8326 18.6332C78.8326 17.683 78.4553 16.7718 77.7835 16.0998L66.3168 4.63314C65.6449 3.96136 64.7336 3.58398 63.7834 3.58398C62.8332 3.58398 61.922 3.96136 61.25 4.63314ZM33.1817 55.6347L23.582 58.8346L26.7819 49.2349L63.7834 12.2334L70.1832 18.6332L33.1817 55.6347ZM10.7501 75.2499H71.6667C72.6171 75.2499 73.5285 75.6274 74.2005 76.2994C74.8726 76.9714 75.2501 77.8829 75.2501 78.8332C75.2501 79.7836 74.8726 80.695 74.2005 81.367C73.5285 82.039 72.6171 82.4165 71.6667 82.4165H10.7501C9.79972 82.4165 8.88829 82.039 8.21628 81.367C7.54428 80.695 7.16675 79.7836 7.16675 78.8332C7.16675 77.8829 7.54428 76.9714 8.21628 76.2994C8.88829 75.6274 9.79972 75.2499 10.7501 75.2499Z" fill="#D62E57"/>
</svg>
